<?xml version="1.0" encoding="utf-8"?>
<!-- Generator: Adobe Illustrator 16.0.0, SVG Export Plug-In . SVG Version: 6.00 Build 0)  -->
<!DOCTYPE svg PUBLIC "-//W3C//DTD SVG 1.1//EN" "http://www.w3.org/Graphics/SVG/1.1/DTD/svg11.dtd">
<svg version="1.1" id="Layer_1" xmlns="http://www.w3.org/2000/svg" xmlns:xlink="http://www.w3.org/1999/xlink" x="0px" y="0px"
	 width="200px" height="30px" viewBox="0 0 200 30" enable-background="new 0 0 200 30" xml:space="preserve">
<g>
	<g>
		<path fill="#3A7345" d="M21.001,3.417c-5.48,0.05-11.137,0.141-14.87,4.718c-3.63,4.453-3.145,10.704,1.132,14.388
			c10.289,8.862,22.4-9.247,22.011-18.222c-0.058-1.343-2.226-1.784-2.456-0.333c-0.857,5.428-1.238,10.824-1.019,16.32
			c0.039,0.984,1.022,1.508,1.881,1.079c2.017-1.005,2.498-3.159,4.216-4.538c-0.589,0-1.178,0-1.768,0
			c3.333,2.962,7.957,6.592,12.153,2.187c3.306-3.471-0.248-5.708-3.896-5.953c-0.545-0.037-1.071,0.408-1.206,0.917
			c-2.86,10.828,9.289,6.885,13.261,1.405c-0.719,0-1.439,0-2.158,0c0.458,1.09,1,2.136,1.629,3.137c0.494,0.863,1.641,0.75,2.158,0
			c0.973-0.819,1.945-1.639,2.918-2.458c-0.612-0.249-1.224-0.498-1.836-0.747c0.418,1.377,0.896,2.651,1.498,3.953
			c0.187,0.404,0.667,0.597,1.079,0.619c4.904,0.264,10.346-0.752,13.406-4.9c2.992-4.055-0.748-6.628-4.515-6.17
			c-0.524,0.063-1.095,0.331-1.206,0.917c-0.373,1.991-0.418,3.825-0.207,5.849c0.091,0.873,0.724,1.335,1.583,1.205
			c1.609-0.242,1.252,3.48,1.292,4.501c0.054,1.365-2.963,1.53-3.754,1.728c-4.149,1.033-8.394,1.482-12.662,1.396
			c-1.613-0.032-1.61,2.468,0,2.5c6.142,0.124,12.107-0.992,17.971-2.764c0.541-0.163,0.908-0.637,0.917-1.205
			c0.05-3.019-0.274-5.494-1.478-8.271c-0.229-0.528-0.911-0.679-1.412-0.575c-0.508,0.122-1.022,0.214-1.541,0.278
			c0.528,0.402,1.055,0.804,1.583,1.206c-0.045-0.429-0.547-4.332,0.134-4.415c0.378,0.853,0.757,1.705,1.135,2.557
			c-0.964,1.295-2.205,2.192-3.722,2.69c-1.361,0.562-2.938,0.784-4.379,0.95c-2.438,0.28-2.619-0.433-3.312-2.716
			c-0.245-0.805-1.107-1.116-1.836-0.747c-1.73,0.875-2.715,1.762-3.814,3.355c0.719,0,1.439,0,2.158,0
			c-0.628-1.001-1.171-2.047-1.629-3.137c-0.437-0.932-1.664-0.683-2.158,0c-1.536,2.118-3.783,3.577-6.25,4.381
			c-2.262,0.736-3.123-0.312-2.763-2.646c-0.819,5.325-5.208,1.125-7.374-0.798c-0.552-0.491-1.211-0.446-1.768,0
			c-1.4,1.123-2.118,3.354-3.71,4.148c0.627,0.359,1.254,0.72,1.881,1.079c-0.21-5.273,0.106-10.439,0.93-15.655
			c-0.819-0.111-1.637-0.222-2.456-0.333c0.318,7.334-6.612,18.752-15.014,17.613c-7.44-1.009-6.429-10.678-1.658-14.155
			c2.946-2.147,7.445-1.81,10.898-1.842C22.613,5.902,22.614,3.402,21.001,3.417L21.001,3.417z"/>
	</g>
</g>
<g>
	<g>
		<path fill="#3A7345" d="M81.206,8.424c-1.869,0.68-3.866,0.733-5.701,1.562c-2.068,0.935-2.929,3.147-2.517,5.302
			c1.004,5.244,7.44,4.889,10.434,1.559c1.075-1.196-0.688-2.969-1.768-1.768c-1.886,2.098-6.11,2.862-6.277-0.924
			c-0.125-2.829,4.668-2.656,6.493-3.32C83.374,10.289,82.725,7.872,81.206,8.424L81.206,8.424z"/>
	</g>
</g>
<g>
	<g>
		<path fill="#3A7345" d="M83.821,4.369c-0.021,4.344-0.069,8.619,0.711,12.905c0.269,1.478,2.345,0.983,2.456-0.332
			c-0.114-2.578,1.163-3.513,3.833-2.805c0.211,0.581,0.481,1.132,0.809,1.656c0.508,0.912,1.436,1.185,2.337,1.502
			c2.448,0.863,5.638-1.273,7.399-2.715c0.568-0.465,0.391-1.279,0-1.768c-1.265-1.582-2.243-2.245-4.245-2.598
			c-0.857-0.151-1.493,0.349-1.583,1.206c-0.305,2.907,1.495,4.762,4.457,4.888c4.575,0.195,5.679-1.346,8.311-4.592
			c-0.711-0.294-1.423-0.589-2.134-0.884c0.002,2.091,0.259,3.854,1.48,5.587c0.541,0.769,1.631,0.839,2.158,0
			c1.571-2.497,6.094,0.562,8.848,0.085c3.167-0.548,4.484-3.958,4.255-6.733c-0.044-0.534-0.346-1.084-0.918-1.206
			c-1.889-0.4-1.883-0.411-3.812-0.401c-0.702,0.003-1.223,0.567-1.25,1.25c-0.194,4.874,4.581,2.92,6.02,5.628
			c1.491,2.809,1.972,6.368-2.505,6.549c-1.598,0.064-3.228-0.156-4.816-0.297c-3.807-0.338-7.428,0.756-11.228,0.824
			c-1.61,0.029-1.613,2.529,0,2.5c3.785-0.068,7.438-1.135,11.228-0.824c2.729,0.223,5.491,0.592,8.161-0.18
			c5.489-1.586,1.843-8.876,0.26-11.814c-0.275-0.511-0.874-0.69-1.411-0.575c-1.069-0.604-2.139-1.208-3.208-1.812
			c-0.417,0.417-0.833,0.833-1.25,1.25c0.946,3.543-0.206,4.534-3.457,2.971c-0.504-0.274-1-0.56-1.49-0.857
			c-0.53-0.313-1.241-0.64-1.872-0.64c-1.868,0-2.83,1.619-3.712,3.02c0.72,0,1.438,0,2.158,0c-0.979-1.279-1.358-2.721-1.139-4.325
			c-0.001-1.008-1.419-1.766-2.134-0.884c-0.618,0.763-1.07,1.344-1.612,2.146c-1.165,1.726-7.312,3.375-6.888-0.674
			c-0.527,0.402-1.055,0.804-1.583,1.206c1.047,0.651,2.095,1.303,3.142,1.955c0-0.589,0-1.178,0-1.768
			c-1.244,1.018-4.82,3.496-6.249,0.93c-0.354-0.635-0.485-1.381-0.98-1.94c-1.009-1.143-1.89-1.396-3.375-1.336
			c-2.98,0.12-4.306,4.096-4.506,6.477c0.818-0.11,1.637-0.222,2.456-0.332c-0.741-4.068-0.642-8.127-0.622-12.241
			C86.329,2.757,83.829,2.757,83.821,4.369L83.821,4.369z"/>
	</g>
</g>
<g>
	<g>
		<path fill="#3A7345" d="M144.703,4.667c-1.302-3.221-10.149-3.532-12.263-1.023c-3.634,4.316-4.303,12.958-0.812,17.57
			c6.495,8.579,24.108,4.118,25.463-6.485c0.066-0.517-0.428-1.104-0.918-1.206c-2.35-0.484-4.562-0.508-6.964-0.402
			c-0.728,0.032-1.188,0.547-1.25,1.25c-0.388,4.367,1.715,6.355,5.841,7.269c4.643,1.028,4.889-2.57,4.641-5.901
			c-0.627,0.359-1.254,0.72-1.881,1.079c3.682,2.54,8.591,6.474,11.99,0.943c2.37-3.855,0.78-7.659-3.993-7.292
			c-0.558,0.043-1.053,0.35-1.205,0.917c-1.139,4.245,4.025,10.918,6.351,4.946c0.586-1.504-1.832-2.149-2.41-0.665
			c-2.185,5.611-7.439,0.393-9.471-1.008c-0.756-0.521-1.949,0.164-1.881,1.079c0.351,4.711-5.923,3.601-5.481-1.367
			c-0.417,0.417-0.833,0.833-1.25,1.25c2.33-0.103,6.14-0.963,4.276,2.275c-1.003,1.744-2.87,2.847-4.616,3.705
			c-3.386,1.663-7.58,1.757-11.148,0.749c-4.463-1.262-5.714-4.97-5.68-9.183c0.023-2.962,0.519-8.063,4.273-8.394
			c0.875-0.077,5.699-0.129,5.978,0.559C142.889,6.807,145.308,6.164,144.703,4.667L144.703,4.667z"/>
	</g>
</g>
</svg>
